<svg width="63" height="60" viewBox="0 0 63 60" fill="none" xmlns="http://www.w3.org/2000/svg">
<path d="M31.3416 0H31.1991C13.9683 0 0 13.4009 0 29.9317V30.0683C0 46.5991 13.9683 60 31.1991 60H31.3416C48.5724 60 62.5407 46.5991 62.5407 30.0683V29.9317C62.5407 13.4009 48.5724 0 31.3416 0Z" fill="black"/>
<path d="M40.4894 14.8558H45.5496L34.4946 27.4911L47.5 44.6848H37.3169L29.341 34.2569L20.2149 44.6848H15.1516L26.9761 31.17L14.5 14.8558H24.9417L32.1511 24.3873L40.4894 14.8558ZM38.7135 41.656H41.5174L23.4181 17.7255H20.4092L38.7135 41.656Z" fill="white"/>
</svg>
