<svg width="42" height="39" viewBox="0 0 42 39" fill="none" xmlns="http://www.w3.org/2000/svg">
<path fill-rule="evenodd" clip-rule="evenodd" d="M19.8861 17.5657C23.1346 18.2887 25.7523 18.7353 28.286 19.4377C30.7292 20.1962 32.8269 21.7914 34.2107 23.943C35.5946 26.0946 36.176 28.665 35.8529 31.2027C35.8023 32.1243 35.4197 32.9965 34.7758 33.6579C34.132 34.3193 33.2704 34.7251 32.3504 34.8005C30.7456 34.9289 29.131 34.8546 27.5447 34.5794C26.2563 34.266 24.9939 33.8539 23.7687 33.3469C23.1623 34.6025 22.4817 35.821 21.7305 36.9958C21.4609 37.4276 21.0962 37.7921 20.6643 38.0614C20.2323 38.3308 19.7445 38.4978 19.2381 38.5497C18.7317 38.6017 18.2202 38.5372 17.7425 38.3613C17.2648 38.1853 16.8338 37.9024 16.4821 37.5343C15.1023 36.2274 14.0915 34.7366 14.5112 32.6417C15.2095 29.2565 15.756 25.8168 16.7525 22.5188C17.2463 20.9262 18.6021 19.5573 19.8861 17.5657Z" fill="#D27815"/>
<path fill-rule="evenodd" clip-rule="evenodd" d="M22.7398 0.632161C25.8581 1.38754 26.5031 2.29641 26.8472 5.68539C27.066 7.09177 26.8834 8.53135 26.3203 9.83854C25.7573 11.1457 24.8366 12.2674 23.6643 13.0746C23.2062 13.4907 22.6132 13.7275 21.9945 13.7415C21.3758 13.7555 20.7728 13.5457 20.2963 13.1507C16.7276 10.0005 15.6634 6.81032 17.1037 3.58027C18.4044 0.653708 19.5803 -0.14063 22.7398 0.632161Z" fill="#D27815"/>
<path fill-rule="evenodd" clip-rule="evenodd" d="M41.4712 8.7764C42.6321 14.9531 41.749 17.1677 37.8396 18.8115C35.1848 19.9224 32.0052 18.1409 32.2459 15.3439C32.4949 13.1515 33.0986 11.0142 34.0334 9.01552C34.3201 8.62244 34.6957 8.30287 35.1297 8.08296C35.5637 7.86305 36.0435 7.74906 36.53 7.75033C38.2031 7.95213 39.8561 8.29537 41.4712 8.7764Z" fill="#D27815"/>
<path fill-rule="evenodd" clip-rule="evenodd" d="M10.8684 30.2565C9.25503 30.5697 7.49502 31.0344 5.71483 31.2139C4.60994 31.1996 3.53649 30.8441 2.64142 30.1962C1.74635 29.5482 1.07341 28.6395 0.714708 27.5944C0.293898 25.4548 1.72323 22.7866 3.82494 22.306C4.99892 21.977 6.24038 21.974 7.41592 22.2974C8.59146 22.6209 9.65666 23.2585 10.4971 24.1418C12.388 25.9853 12.5088 27.8815 10.8684 30.2565Z" fill="#D27815"/>
<path fill-rule="evenodd" clip-rule="evenodd" d="M9.1951 18.6773C5.88341 18.1267 4.52847 16.8642 4.01782 14.6041C3.42853 11.9902 5.4673 9.4195 8.02068 10.0525C9.9642 10.5617 11.7478 11.5531 13.2063 12.9348C13.9168 13.6431 13.6567 15.6016 13.3846 16.8995C13.1937 17.4874 12.8096 17.9935 12.2948 18.3355C11.7799 18.6775 11.1645 18.8354 10.5486 18.7835C9.71663 18.8105 8.91962 18.6628 9.1951 18.6773Z" fill="#D27815"/>
</svg>
